# xmcd
#
# Track frame offsets: 
#        150
#        20177
#        43553
#        62030
#        77847
#        106804
#        129366
#        149134
#        181769
#        195596
#        225098
#        245845
#        275192
#
# Disc length: 3940 seconds
#
# Revision: 0
# Processed by: cddbd v1.5.2PL0 Copyright (c) Steve Scherf et al.
# Submitted via: ExactAudioCopy v0.99pb4
#
DISCID=b80f620d
DTITLE=Vance Kelly  - Bluebird 
DYEAR=2009
DGENRE=Blues
TTITLE0=I Stay Mad
TTITLE1=Ain't Gonna Worry About Tomorrow
TTITLE2=I Wish He Didn't Trust Me So Much
TTITLE3=Bump and Grind
TTITLE4=Little Bluebird
TTITLE5=My Baby Is Fine
TTITLE6=Someone Else Is Steppin' In
TTITLE7=Nobody's Sleeping In My Bed
TTITLE8=Ain't Doin' Too Bad
TTITLE9=Doing My Own Thing-I Can't Get Next To You/I'm A Bluesman
TTITLE10=Soft Hearted Woman
TTITLE11=Medley: Stormy Monday Blues/Take Off Your Shoes
TTITLE12=Driving Wheel
EXTD=
EXTT0=
EXTT1=
EXTT2=
EXTT3=
EXTT4=
EXTT5=
EXTT6=
EXTT7=
EXTT8=
EXTT9=
EXTT10=
EXTT11=
EXTT12=
PLAYORDER=
